<mxfile host="65bd71144e" modified="2021-02-04T22:29:10.982Z" agent="5.0 (X11; Linux x86_64) AppleWebKit/537.36 (KHTML, like Gecko) Code/1.52.1 Chrome/83.0.4103.122 Electron/9.3.5 Safari/537.36" etag="v7XY9fQ2uMP1HTrP3y_p" version="13.10.0" type="embed">
    <diagram id="9RABLxfnX26XA1Wl55up" name="Page-1">
        <mxGraphModel dx="1139" dy="798" grid="1" gridSize="10" guides="1" tooltips="1" connect="1" arrows="1" fold="1" page="1" pageScale="1" pageWidth="1100" pageHeight="850" background="#8A8A8A" math="0" shadow="0">
            <root>
                <mxCell id="0"/>
                <mxCell id="1" parent="0"/>
                <mxCell id="8" style="edgeStyle=orthogonalEdgeStyle;rounded=0;orthogonalLoop=1;jettySize=auto;html=1;exitX=0;exitY=1;exitDx=0;exitDy=0;entryX=0.5;entryY=0;entryDx=0;entryDy=0;" parent="1" source="2" target="3" edge="1">
                    <mxGeometry relative="1" as="geometry">
                        <Array as="points">
                            <mxPoint x="300" y="118"/>
                        </Array>
                    </mxGeometry>
                </mxCell>
                <mxCell id="9" style="edgeStyle=orthogonalEdgeStyle;rounded=0;orthogonalLoop=1;jettySize=auto;html=1;exitX=1;exitY=1;exitDx=0;exitDy=0;entryX=0.5;entryY=0;entryDx=0;entryDy=0;" parent="1" source="2" target="4" edge="1">
                    <mxGeometry relative="1" as="geometry"/>
                </mxCell>
                <mxCell id="2" value="" style="ellipse;whiteSpace=wrap;html=1;aspect=fixed;fillColor=#CCFFFF;strokeColor=#FF66B3;strokeWidth=10;" parent="1" vertex="1">
                    <mxGeometry x="340" y="50" width="80" height="80" as="geometry"/>
                </mxCell>
                <mxCell id="3" value="" style="ellipse;whiteSpace=wrap;html=1;aspect=fixed;fillColor=#CCFFFF;strokeColor=#FF66B3;fontColor=#050505;strokeWidth=10;" parent="1" vertex="1">
                    <mxGeometry x="260" y="160" width="80" height="80" as="geometry"/>
                </mxCell>
                <mxCell id="4" value="" style="ellipse;whiteSpace=wrap;html=1;aspect=fixed;fillColor=#CCFFFF;strokeColor=#FF66B3;fontColor=#050505;strokeWidth=10;" parent="1" vertex="1">
                    <mxGeometry x="430" y="160" width="80" height="80" as="geometry"/>
                </mxCell>
                <mxCell id="5" value="App.js" style="text;html=1;strokeColor=none;fillColor=none;align=center;verticalAlign=middle;whiteSpace=wrap;rounded=0;fontColor=#141414;" parent="1" vertex="1">
                    <mxGeometry x="360" y="80" width="40" height="20" as="geometry"/>
                </mxCell>
                <mxCell id="6" value="Header.js" style="text;html=1;strokeColor=none;fillColor=none;align=center;verticalAlign=middle;whiteSpace=wrap;rounded=0;fontColor=#050505;" parent="1" vertex="1">
                    <mxGeometry x="280" y="190" width="40" height="20" as="geometry"/>
                </mxCell>
                <mxCell id="7" value="Routes.js" style="text;html=1;strokeColor=none;fillColor=none;align=center;verticalAlign=middle;whiteSpace=wrap;rounded=0;fontColor=#050505;" parent="1" vertex="1">
                    <mxGeometry x="450" y="190" width="40" height="20" as="geometry"/>
                </mxCell>
                <mxCell id="11" value="" style="ellipse;whiteSpace=wrap;html=1;aspect=fixed;fillColor=#CCFFFF;strokeColor=#FF66B3;fontColor=#050505;strokeWidth=10;" parent="1" vertex="1">
                    <mxGeometry x="340" y="300" width="80" height="80" as="geometry"/>
                </mxCell>
                <mxCell id="26" style="edgeStyle=orthogonalEdgeStyle;rounded=0;orthogonalLoop=1;jettySize=auto;html=1;exitX=0.5;exitY=1;exitDx=0;exitDy=0;fontColor=#050505;" parent="1" source="12" edge="1">
                    <mxGeometry relative="1" as="geometry">
                        <mxPoint x="480" y="420" as="targetPoint"/>
                    </mxGeometry>
                </mxCell>
                <mxCell id="12" value="" style="ellipse;whiteSpace=wrap;html=1;aspect=fixed;fillColor=#CCFFFF;strokeColor=#FF6666;fontColor=#050505;strokeWidth=10;" parent="1" vertex="1">
                    <mxGeometry x="430" y="290" width="100" height="100" as="geometry"/>
                </mxCell>
                <mxCell id="30" style="edgeStyle=orthogonalEdgeStyle;rounded=0;orthogonalLoop=1;jettySize=auto;html=1;exitX=0.5;exitY=1;exitDx=0;exitDy=0;entryX=0.5;entryY=0;entryDx=0;entryDy=0;fontColor=#050505;" parent="1" source="13" target="27" edge="1">
                    <mxGeometry relative="1" as="geometry"/>
                </mxCell>
                <mxCell id="13" value="" style="ellipse;whiteSpace=wrap;html=1;aspect=fixed;fillColor=#CCFFFF;strokeColor=#FF6666;fontColor=#050505;strokeWidth=10;" parent="1" vertex="1">
                    <mxGeometry x="540" y="300" width="80" height="80" as="geometry"/>
                </mxCell>
                <mxCell id="14" value="" style="ellipse;whiteSpace=wrap;html=1;aspect=fixed;fillColor=#FFE6CC;fontColor=#050505;strokeWidth=13;" parent="1" vertex="1">
                    <mxGeometry x="640" y="300" width="80" height="80" as="geometry"/>
                </mxCell>
                <mxCell id="15" value="" style="endArrow=none;dashed=1;html=1;dashPattern=1 3;strokeWidth=2;entryX=0.5;entryY=1;entryDx=0;entryDy=0;fontColor=#050505;" parent="1" target="4" edge="1">
                    <mxGeometry width="50" height="50" relative="1" as="geometry">
                        <mxPoint x="470" y="280" as="sourcePoint"/>
                        <mxPoint x="450" y="230" as="targetPoint"/>
                        <Array as="points">
                            <mxPoint x="470" y="260"/>
                        </Array>
                    </mxGeometry>
                </mxCell>
                <mxCell id="16" value="" style="endArrow=none;dashed=1;html=1;dashPattern=1 3;strokeWidth=2;fontColor=#050505;" parent="1" edge="1">
                    <mxGeometry width="50" height="50" relative="1" as="geometry">
                        <mxPoint x="380" y="280" as="sourcePoint"/>
                        <mxPoint x="880" y="280" as="targetPoint"/>
                    </mxGeometry>
                </mxCell>
                <mxCell id="17" value="" style="endArrow=none;dashed=1;html=1;dashPattern=1 3;strokeWidth=2;exitX=0.5;exitY=0;exitDx=0;exitDy=0;fontColor=#050505;" parent="1" source="11" edge="1">
                    <mxGeometry width="50" height="50" relative="1" as="geometry">
                        <mxPoint x="400" y="280" as="sourcePoint"/>
                        <mxPoint x="380" y="280" as="targetPoint"/>
                    </mxGeometry>
                </mxCell>
                <mxCell id="18" value="" style="endArrow=none;dashed=1;html=1;dashPattern=1 3;strokeWidth=2;exitX=0.5;exitY=0;exitDx=0;exitDy=0;fontColor=#050505;" parent="1" source="12" edge="1">
                    <mxGeometry width="50" height="50" relative="1" as="geometry">
                        <mxPoint x="400" y="280" as="sourcePoint"/>
                        <mxPoint x="480" y="280" as="targetPoint"/>
                    </mxGeometry>
                </mxCell>
                <mxCell id="19" value="" style="endArrow=none;dashed=1;html=1;dashPattern=1 3;strokeWidth=2;exitX=0.5;exitY=0;exitDx=0;exitDy=0;fontColor=#050505;" parent="1" source="13" edge="1">
                    <mxGeometry width="50" height="50" relative="1" as="geometry">
                        <mxPoint x="400" y="280" as="sourcePoint"/>
                        <mxPoint x="580" y="280" as="targetPoint"/>
                    </mxGeometry>
                </mxCell>
                <mxCell id="20" value="" style="endArrow=none;dashed=1;html=1;dashPattern=1 3;strokeWidth=2;exitX=0.5;exitY=0;exitDx=0;exitDy=0;fontColor=#050505;" parent="1" source="14" edge="1">
                    <mxGeometry width="50" height="50" relative="1" as="geometry">
                        <mxPoint x="400" y="280" as="sourcePoint"/>
                        <mxPoint x="680" y="280" as="targetPoint"/>
                    </mxGeometry>
                </mxCell>
                <mxCell id="21" value="Home" style="text;html=1;strokeColor=none;fillColor=none;align=center;verticalAlign=middle;whiteSpace=wrap;rounded=0;fontColor=#050505;" parent="1" vertex="1">
                    <mxGeometry x="360" y="330" width="40" height="20" as="geometry"/>
                </mxCell>
                <mxCell id="22" value="Posts Container" style="text;html=1;strokeColor=none;fillColor=none;align=center;verticalAlign=middle;whiteSpace=wrap;rounded=0;fontColor=#050505;" parent="1" vertex="1">
                    <mxGeometry x="460" y="320" width="40" height="20" as="geometry"/>
                </mxCell>
                <mxCell id="23" value="Post Show" style="text;html=1;strokeColor=none;fillColor=none;align=center;verticalAlign=middle;whiteSpace=wrap;rounded=0;fontColor=#050505;" parent="1" vertex="1">
                    <mxGeometry x="560" y="330" width="40" height="20" as="geometry"/>
                </mxCell>
                <mxCell id="24" value="Post New" style="text;html=1;strokeColor=none;fillColor=none;align=center;verticalAlign=middle;whiteSpace=wrap;rounded=0;fontColor=#050505;strokeWidth=1;" parent="1" vertex="1">
                    <mxGeometry x="660" y="330" width="40" height="20" as="geometry"/>
                </mxCell>
                <mxCell id="29" style="edgeStyle=orthogonalEdgeStyle;rounded=0;orthogonalLoop=1;jettySize=auto;html=1;exitX=0.5;exitY=1;exitDx=0;exitDy=0;entryX=0.5;entryY=0;entryDx=0;entryDy=0;fontColor=#050505;" parent="1" source="25" target="28" edge="1">
                    <mxGeometry relative="1" as="geometry"/>
                </mxCell>
                <mxCell id="25" value="Post List" style="ellipse;whiteSpace=wrap;html=1;aspect=fixed;fillColor=#CCFFFF;strokeColor=#009900;fontColor=#050505;strokeWidth=10;" parent="1" vertex="1">
                    <mxGeometry x="440" y="425" width="80" height="80" as="geometry"/>
                </mxCell>
                <mxCell id="78" value="" style="edgeStyle=orthogonalEdgeStyle;rounded=0;orthogonalLoop=1;jettySize=auto;html=1;fontColor=#E6E6E6;" edge="1" parent="1" target="23">
                    <mxGeometry relative="1" as="geometry">
                        <mxPoint x="580" y="410" as="sourcePoint"/>
                    </mxGeometry>
                </mxCell>
                <mxCell id="80" value="" style="edgeStyle=orthogonalEdgeStyle;rounded=0;orthogonalLoop=1;jettySize=auto;html=1;fontColor=#E6E6E6;" edge="1" parent="1" source="27" target="23">
                    <mxGeometry relative="1" as="geometry"/>
                </mxCell>
                <mxCell id="27" value="Post Card" style="ellipse;whiteSpace=wrap;html=1;aspect=fixed;fillColor=#CCFFFF;strokeColor=#FF66B3;fontColor=#050505;strokeWidth=10;" parent="1" vertex="1">
                    <mxGeometry x="540" y="420" width="80" height="80" as="geometry"/>
                </mxCell>
                <mxCell id="28" value="Post Card" style="ellipse;whiteSpace=wrap;html=1;aspect=fixed;fillColor=#CCFFFF;strokeColor=#FF66B3;fontColor=#050505;strokeWidth=10;" parent="1" vertex="1">
                    <mxGeometry x="440" y="530" width="80" height="80" as="geometry"/>
                </mxCell>
                <mxCell id="31" value="Class" style="ellipse;whiteSpace=wrap;html=1;aspect=fixed;fillColor=#FFE6CC;strokeColor=#000000;fontColor=#030303;strokeWidth=4;" parent="1" vertex="1">
                    <mxGeometry x="690" y="520" width="60" height="60" as="geometry"/>
                </mxCell>
                <mxCell id="32" value="Functional" style="ellipse;whiteSpace=wrap;html=1;aspect=fixed;fillColor=#CCFFFF;fontColor=#000000;strokeWidth=12;" parent="1" vertex="1">
                    <mxGeometry x="855" y="420" width="60" height="60" as="geometry"/>
                </mxCell>
                <mxCell id="33" value="container" style="ellipse;whiteSpace=wrap;html=1;aspect=fixed;strokeColor=#FF3333;fillColor=#FFFFFF;fontColor=#000000;strokeWidth=10;" parent="1" vertex="1">
                    <mxGeometry x="760" y="520" width="60" height="60" as="geometry"/>
                </mxCell>
                <mxCell id="34" value="computational" style="ellipse;whiteSpace=wrap;html=1;aspect=fixed;strokeColor=#009900;fillColor=#FFFFFF;fontColor=#000000;strokeWidth=11;" parent="1" vertex="1">
                    <mxGeometry x="750" y="415" width="90" height="90" as="geometry"/>
                </mxCell>
                <mxCell id="35" value="presentational" style="ellipse;whiteSpace=wrap;html=1;aspect=fixed;strokeColor=#FF66B3;fillColor=#FFFFFF;fontColor=#000000;strokeWidth=9;" parent="1" vertex="1">
                    <mxGeometry x="840" y="500" width="90" height="90" as="geometry"/>
                </mxCell>
                <mxCell id="36" value="use maps, posts" style="strokeWidth=2;html=1;shape=mxgraph.flowchart.decision;whiteSpace=wrap;fillColor=#A1A1A1;" parent="1" vertex="1">
                    <mxGeometry x="615" y="160" width="100" height="100" as="geometry"/>
                </mxCell>
                <mxCell id="37" value="State: Data" style="text;html=1;align=center;verticalAlign=middle;resizable=0;points=[];autosize=1;" parent="1" vertex="1">
                    <mxGeometry x="625" y="140" width="80" height="20" as="geometry"/>
                </mxCell>
                <mxCell id="40" value="" style="endArrow=classic;html=1;entryX=0.625;entryY=0;entryDx=0;entryDy=0;entryPerimeter=0;exitX=0.5;exitY=1;exitDx=0;exitDy=0;exitPerimeter=0;fontColor=#050505;" parent="1" source="36" target="12" edge="1">
                    <mxGeometry width="50" height="50" relative="1" as="geometry">
                        <mxPoint x="580" y="150" as="sourcePoint"/>
                        <mxPoint x="605" y="170" as="targetPoint"/>
                    </mxGeometry>
                </mxCell>
                <mxCell id="41" value="" style="endArrow=classic;html=1;exitX=0.5;exitY=1;exitDx=0;exitDy=0;exitPerimeter=0;fontColor=#050505;" parent="1" source="36" edge="1">
                    <mxGeometry width="50" height="50" relative="1" as="geometry">
                        <mxPoint x="629.5999999999999" y="170.00000000000003" as="sourcePoint"/>
                        <mxPoint x="580" y="300" as="targetPoint"/>
                    </mxGeometry>
                </mxCell>
                <mxCell id="43" value="Backend Api" style="text;html=1;align=center;verticalAlign=middle;resizable=0;points=[];autosize=1;" parent="1" vertex="1">
                    <mxGeometry x="830" y="150" width="80" height="20" as="geometry"/>
                </mxCell>
                <mxCell id="48" value="X posts.length" style="text;html=1;align=center;verticalAlign=middle;resizable=0;points=[];autosize=1;fontColor=#E6E6E6;" parent="1" vertex="1">
                    <mxGeometry x="525" y="560" width="90" height="20" as="geometry"/>
                </mxCell>
                <mxCell id="49" value="state: posts[]" style="text;html=1;align=center;verticalAlign=middle;resizable=0;points=[];autosize=1;fontColor=#050505;" parent="1" vertex="1">
                    <mxGeometry x="440" y="340" width="80" height="20" as="geometry"/>
                </mxCell>
                <mxCell id="50" value="props:&lt;br&gt;posts:[]" style="text;html=1;align=center;verticalAlign=middle;resizable=0;points=[];autosize=1;fontColor=#CFCFCF;" parent="1" vertex="1">
                    <mxGeometry x="385" y="445" width="50" height="30" as="geometry"/>
                </mxCell>
                <mxCell id="51" value="props:&lt;br&gt;post{}" style="text;html=1;align=center;verticalAlign=middle;resizable=0;points=[];autosize=1;fontColor=#E6E6E6;" parent="1" vertex="1">
                    <mxGeometry x="385" y="555" width="50" height="30" as="geometry"/>
                </mxCell>
                <mxCell id="53" value="Change Header&amp;nbsp;&lt;br&gt;Based on user state" style="text;html=1;align=center;verticalAlign=middle;resizable=0;points=[];autosize=1;fontColor=#E6E6E6;" parent="1" vertex="1">
                    <mxGeometry x="130" y="180" width="120" height="30" as="geometry"/>
                </mxCell>
                <mxCell id="54" value="Protect routes &lt;br&gt;based on user" style="text;html=1;align=center;verticalAlign=middle;resizable=0;points=[];autosize=1;fontColor=#E6E6E6;" parent="1" vertex="1">
                    <mxGeometry x="510" y="170" width="90" height="30" as="geometry"/>
                </mxCell>
                <mxCell id="58" value="Global State" style="text;html=1;align=center;verticalAlign=middle;resizable=0;points=[];autosize=1;" parent="1" vertex="1">
                    <mxGeometry x="180" y="390" width="80" height="20" as="geometry"/>
                </mxCell>
                <mxCell id="59" value="" style="endArrow=classic;html=1;exitX=0.35;exitY=1.038;exitDx=0;exitDy=0;fontColor=#050505;exitPerimeter=0;" parent="1" source="3" edge="1">
                    <mxGeometry relative="1" as="geometry">
                        <mxPoint x="150" y="280" as="sourcePoint"/>
                        <mxPoint x="265" y="290" as="targetPoint"/>
                    </mxGeometry>
                </mxCell>
                <mxCell id="60" value="Subscribe to user" style="edgeLabel;resizable=0;html=1;align=center;verticalAlign=middle;fontColor=#050505;labelBackgroundColor=#FAFAFA;" parent="59" connectable="0" vertex="1">
                    <mxGeometry relative="1" as="geometry"/>
                </mxCell>
                <mxCell id="62" value="" style="endArrow=classic;html=1;exitX=0;exitY=1;exitDx=0;exitDy=0;fontColor=#050505;" parent="1" edge="1" target="90">
                    <mxGeometry relative="1" as="geometry">
                        <mxPoint x="429.99572875253807" y="220.0042712474618" as="sourcePoint"/>
                        <mxPoint x="130" y="300" as="targetPoint"/>
                        <Array as="points">
                            <mxPoint x="360" y="260"/>
                        </Array>
                    </mxGeometry>
                </mxCell>
                <mxCell id="63" value="Subscribe to user" style="edgeLabel;resizable=0;html=1;align=center;verticalAlign=middle;fontColor=#050505;labelBackgroundColor=#FAFAFA;" parent="62" connectable="0" vertex="1">
                    <mxGeometry relative="1" as="geometry">
                        <mxPoint x="18.6" y="-9.2" as="offset"/>
                    </mxGeometry>
                </mxCell>
                <mxCell id="64" value="State:&amp;nbsp;&lt;br&gt;User" style="text;html=1;align=center;verticalAlign=middle;resizable=0;points=[];autosize=1;fontColor=#FFFFFF;" parent="1" vertex="1">
                    <mxGeometry x="355" y="180" width="50" height="30" as="geometry"/>
                </mxCell>
                <mxCell id="66" value="" style="endArrow=classic;html=1;fontColor=#050505;entryX=0.8;entryY=0.971;entryDx=0;entryDy=0;entryPerimeter=0;" parent="1" edge="1" target="90" source="28">
                    <mxGeometry relative="1" as="geometry">
                        <mxPoint x="514.9957287525381" y="590.0042712474618" as="sourcePoint"/>
                        <mxPoint x="185" y="400" as="targetPoint"/>
                        <Array as="points">
                            <mxPoint x="380" y="490"/>
                        </Array>
                    </mxGeometry>
                </mxCell>
                <mxCell id="67" value="Subscribe to user" style="edgeLabel;resizable=0;html=1;align=center;verticalAlign=middle;fontColor=#050505;labelBackgroundColor=#ffffff;" parent="66" connectable="0" vertex="1">
                    <mxGeometry relative="1" as="geometry">
                        <mxPoint x="-29.86" y="-22.849999999999994" as="offset"/>
                    </mxGeometry>
                </mxCell>
                <mxCell id="69" value="Login" style="ellipse;whiteSpace=wrap;html=1;aspect=fixed;fillColor=#CCFFFF;strokeColor=#FF66B3;fontColor=#050505;strokeWidth=11;" parent="1" vertex="1">
                    <mxGeometry x="740" y="300" width="80" height="80" as="geometry"/>
                </mxCell>
                <mxCell id="70" value="Register" style="ellipse;whiteSpace=wrap;html=1;aspect=fixed;fillColor=#CCFFFF;strokeColor=#FF66B3;fontColor=#050505;strokeWidth=10;" parent="1" vertex="1">
                    <mxGeometry x="840" y="300" width="80" height="80" as="geometry"/>
                </mxCell>
                <mxCell id="71" value="" style="endArrow=none;dashed=1;html=1;dashPattern=1 3;strokeWidth=2;exitX=0.5;exitY=0;exitDx=0;exitDy=0;fontColor=#050505;" parent="1" edge="1">
                    <mxGeometry width="50" height="50" relative="1" as="geometry">
                        <mxPoint x="779.29" y="300" as="sourcePoint"/>
                        <mxPoint x="779.29" y="280" as="targetPoint"/>
                        <Array as="points">
                            <mxPoint x="779.29" y="290"/>
                        </Array>
                    </mxGeometry>
                </mxCell>
                <mxCell id="72" value="" style="endArrow=none;dashed=1;html=1;dashPattern=1 3;strokeWidth=2;exitX=0.5;exitY=0;exitDx=0;exitDy=0;fontColor=#050505;" parent="1" edge="1">
                    <mxGeometry width="50" height="50" relative="1" as="geometry">
                        <mxPoint x="880" y="300" as="sourcePoint"/>
                        <mxPoint x="880" y="280" as="targetPoint"/>
                    </mxGeometry>
                </mxCell>
                <mxCell id="73" value="" style="endArrow=classic;html=1;exitX=0.5;exitY=1;exitDx=0;exitDy=0;fontColor=#050505;" parent="1" source="69" edge="1" target="90">
                    <mxGeometry relative="1" as="geometry">
                        <mxPoint x="469.99572875253807" y="535.0042712474619" as="sourcePoint"/>
                        <mxPoint x="300" y="400" as="targetPoint"/>
                        <Array as="points">
                            <mxPoint x="730" y="400"/>
                            <mxPoint x="340" y="400"/>
                        </Array>
                    </mxGeometry>
                </mxCell>
                <mxCell id="74" value="Subscribe to user" style="edgeLabel;resizable=0;html=1;align=center;verticalAlign=middle;fontColor=#050505;labelBackgroundColor=#E8E8E8;" parent="73" connectable="0" vertex="1">
                    <mxGeometry relative="1" as="geometry">
                        <mxPoint x="-150.85000000000002" y="3.552713678800501e-15" as="offset"/>
                    </mxGeometry>
                </mxCell>
                <mxCell id="47" value="Fetch &lt;br&gt;Request" style="text;html=1;align=center;verticalAlign=middle;resizable=0;points=[];autosize=1;fontColor=#FAFAFA;" parent="1" vertex="1">
                    <mxGeometry x="740" y="180" width="60" height="30" as="geometry"/>
                </mxCell>
                <mxCell id="75" value="" style="endArrow=classic;html=1;fontColor=#050505;exitX=1;exitY=0.5;exitDx=0;exitDy=0;exitPerimeter=0;entryX=-0.022;entryY=0.41;entryDx=0;entryDy=0;entryPerimeter=0;" edge="1" parent="1" source="36">
                    <mxGeometry relative="1" as="geometry">
                        <mxPoint x="715" y="210" as="sourcePoint"/>
                        <mxPoint x="828.02" y="211" as="targetPoint"/>
                        <Array as="points"/>
                    </mxGeometry>
                </mxCell>
                <mxCell id="88" value="" style="shape=cylinder3;whiteSpace=wrap;html=1;boundedLbl=1;backgroundOutline=1;size=15;labelBackgroundColor=#FAFAFA;strokeWidth=10;fillColor=#A1A1A1;fontColor=#E6E6E6;" vertex="1" parent="1">
                    <mxGeometry x="835" y="180" width="90" height="80" as="geometry"/>
                </mxCell>
                <mxCell id="90" value="State: User&lt;br&gt;State: SignedIn (user)" style="ellipse;whiteSpace=wrap;html=1;labelBackgroundColor=#C2C2C2;strokeWidth=10;fillColor=#A1A1A1;fontColor=#050505;" vertex="1" parent="1">
                    <mxGeometry x="160" y="297.5" width="150" height="85" as="geometry"/>
                </mxCell>
            </root>
        </mxGraphModel>
    </diagram>
</mxfile>